<?xml version="1.0" encoding="UTF-8"?>
<svg id="Layer_1" xmlns="http://www.w3.org/2000/svg" version="1.1" viewBox="0 0 800 800">
  <!-- Generator: Adobe Illustrator 29.6.0, SVG Export Plug-In . SVG Version: 2.1.1 Build 207)  -->
  <defs>
    <style>
      .st0 {
        fill: none;
      }
    </style>
  </defs>
  <g id="Layer_2">
    <g id="Icons">
      <g>
        <rect class="st0" width="800" height="800"/>
        <g>
          <path d="M233.3,400c0,92,74.6,166.7,166.7,166.7V233.3c-92,0-166.7,74.6-166.7,166.7Z"/>
          <path d="M400,33.3c-202.5,0-366.7,164.2-366.7,366.7s164.2,366.7,366.7,366.7,366.7-164.2,366.7-366.7c.9-201.6-161.7-365.7-363.3-366.7-1.1,0-2.2,0-3.3,0ZM49,400c-.6-166.7,132-353.1,351-353v186.3c92,0,166.7,74.6,166.7,166.7s-74.6,166.7-166.7,166.7v188.3c-217,0-355-188.3-351-355Z"/>
        </g>
      </g>
    </g>
  </g>
</svg>